<?xml version="1.0" encoding="utf-8"?>
<svg viewBox="0 0 94 24" width="94px" height="24px" fill="none" xmlns="http://www.w3.org/2000/svg">
  <defs>
    <clipPath id="clip0_774_157">
      <path d="M0 0H93.7028V24H0V0Z" fill="white"/>
    </clipPath>
  </defs>
  <g clip-path="url(#clip0_774_157)" transform="matrix(1, 0, 0, 1, 0, 8.881784197001252e-16)">
    <path fill-rule="evenodd" clip-rule="evenodd" d="M12 24C18.6274 24 24 18.6274 24 12C24 5.37258 18.6274 0 12 0C5.37258 0 0 5.37258 0 12C0 18.6274 5.37258 24 12 24ZM15.288 16.3815C15.702 16.3815 16.038 16.0455 16.038 15.6315V8.44351C16.038 8.02951 15.702 7.69351 15.288 7.69351C14.874 7.69351 14.538 8.02951 14.538 8.44351V15.6315C14.538 16.0455 14.874 16.3815 15.288 16.3815ZM9.54599 14.6385C9.54599 15.0525 9.20999 15.3885 8.79599 15.3885C8.382 15.3885 8.04599 15.0525 8.04599 14.6385V9.43652C8.04599 9.02252 8.382 8.68652 8.79599 8.68652C9.20999 8.68652 9.54599 9.02252 9.54599 9.43652V14.6385ZM5.55001 14.1945C5.96401 14.1945 6.30001 13.8585 6.30001 13.4445V10.632C6.30001 10.218 5.96401 9.88201 5.55001 9.88201C5.13601 9.88201 4.80001 10.218 4.80001 10.632V13.4445C4.80001 13.8585 5.13601 14.1945 5.55001 14.1945ZM12.792 16.725C12.792 17.139 12.456 17.475 12.042 17.475C11.628 17.475 11.292 17.139 11.292 16.725V7.35001C11.292 6.93601 11.628 6.60001 12.042 6.60001C12.456 6.60001 12.792 6.93601 12.792 7.35001V16.725ZM18.534 14.616C18.948 14.616 19.284 14.28 19.284 13.866V10.209C19.284 9.79502 18.948 9.45901 18.534 9.45901C18.12 9.45901 17.784 9.79502 17.784 10.209V13.866C17.784 14.28 18.12 14.616 18.534 14.616Z" fill="#12E29A"/>
    <path d="M 38.47 8.912 Q 38.333 8.912 38.244 8.887 Q 38.154 8.862 38.1 8.825 Q 38.045 8.788 38.016 8.752 Q 38.007 8.738 37.999 8.725 Q 37.992 8.712 37.988 8.696 Q 37.984 8.674 37.98 8.639 Q 37.976 8.605 37.979 8.558 Q 37.98 8.539 37.986 8.532 Q 37.994 8.523 38.011 8.519 Q 38.042 8.511 38.092 8.505 Q 38.142 8.499 38.164 8.499 Q 38.186 8.499 38.2 8.508 Q 38.214 8.516 38.233 8.537 Q 38.255 8.559 38.307 8.594 Q 38.36 8.629 38.47 8.629 Q 38.575 8.629 38.629 8.585 Q 38.682 8.541 38.682 8.463 Q 38.682 8.421 38.657 8.384 Q 38.632 8.347 38.565 8.31 Q 38.499 8.273 38.375 8.232 Q 38.171 8.163 38.081 8.061 Q 37.991 7.959 37.991 7.777 Q 37.991 7.627 38.064 7.526 Q 38.137 7.425 38.266 7.373 Q 38.394 7.322 38.563 7.322 Q 38.693 7.322 38.779 7.353 Q 38.864 7.383 38.911 7.421 Q 38.958 7.459 38.972 7.483 Q 38.981 7.497 38.984 7.504 Q 38.986 7.511 38.987 7.523 Q 38.991 7.556 38.99 7.597 Q 38.989 7.638 38.982 7.689 Q 38.979 7.707 38.97 7.713 Q 38.963 7.718 38.947 7.718 Q 38.842 7.72 38.785 7.708 Q 38.763 7.702 38.755 7.697 Q 38.748 7.691 38.736 7.68 Q 38.719 7.659 38.682 7.632 Q 38.645 7.604 38.563 7.604 Q 38.45 7.604 38.403 7.655 Q 38.356 7.707 38.356 7.77 Q 38.356 7.845 38.426 7.888 Q 38.495 7.93 38.646 7.984 Q 38.772 8.028 38.862 8.079 Q 38.952 8.131 39 8.211 Q 39.048 8.292 39.048 8.424 Q 39.048 8.588 38.972 8.697 Q 38.896 8.805 38.766 8.859 Q 38.635 8.912 38.47 8.912 Z" transform="matrix(7.719802, 0, 0, 9.207203, -266.946014, -63.431664)" style="fill: rgb(19, 226, 155);"/>
    <path d="M 39.804 8.913 Q 39.533 8.913 39.375 8.769 Q 39.218 8.625 39.218 8.34 Q 39.218 8.048 39.381 7.904 Q 39.545 7.759 39.819 7.759 Q 40.083 7.759 40.242 7.901 Q 40.401 8.044 40.401 8.321 Q 40.401 8.61 40.242 8.761 Q 40.083 8.913 39.804 8.913 Z M 39.815 8.653 Q 39.933 8.653 39.993 8.579 Q 40.053 8.506 40.053 8.327 Q 40.053 8.158 39.993 8.088 Q 39.932 8.019 39.813 8.019 Q 39.698 8.019 39.632 8.094 Q 39.566 8.168 39.566 8.336 Q 39.566 8.511 39.628 8.582 Q 39.691 8.653 39.815 8.653 Z" transform="matrix(7.719802, 0, 0, 9.207203, -266.946014, -63.431664)" style="fill: rgb(19, 226, 155);"/>
    <path d="M 41.015 8.913 Q 40.633 8.913 40.633 8.45 L 40.632 7.904 Q 40.632 7.878 40.643 7.864 Q 40.688 7.805 40.775 7.737 Q 40.79 7.726 40.802 7.726 Q 40.816 7.726 40.829 7.737 Q 40.875 7.772 40.906 7.803 Q 40.938 7.834 40.961 7.864 Q 40.971 7.878 40.971 7.904 L 40.971 8.42 Q 40.971 8.653 41.156 8.653 Q 41.248 8.653 41.302 8.589 Q 41.357 8.525 41.357 8.415 L 41.357 7.904 Q 41.357 7.878 41.368 7.864 Q 41.413 7.805 41.5 7.737 Q 41.515 7.726 41.527 7.726 Q 41.541 7.726 41.554 7.737 Q 41.6 7.772 41.632 7.803 Q 41.663 7.834 41.686 7.864 Q 41.697 7.878 41.697 7.904 L 41.697 8.837 Q 41.697 8.857 41.683 8.871 Q 41.669 8.886 41.647 8.886 L 41.486 8.886 Q 41.469 8.886 41.455 8.881 Q 41.442 8.876 41.43 8.862 L 41.364 8.776 L 41.356 8.776 Q 41.339 8.801 41.303 8.833 Q 41.267 8.866 41.199 8.889 Q 41.13 8.913 41.015 8.913 Z" transform="matrix(7.719802, 0, 0, 9.207203, -266.946014, -63.431664)" style="fill: rgb(19, 226, 155);"/>
    <path d="M 43.051 8.202 L 43.051 8.829 Q 43.051 8.861 43.037 8.874 Q 43.024 8.886 42.992 8.886 L 42.77 8.886 Q 42.738 8.886 42.725 8.874 Q 42.711 8.861 42.711 8.829 L 42.711 8.258 Q 42.711 8.14 42.662 8.087 Q 42.613 8.033 42.528 8.033 Q 42.443 8.033 42.397 8.07 Q 42.352 8.106 42.327 8.162 L 42.327 8.829 Q 42.327 8.861 42.313 8.874 Q 42.3 8.886 42.268 8.886 L 42.046 8.886 Q 42.014 8.886 42.001 8.874 Q 41.987 8.861 41.987 8.829 L 41.987 7.929 Q 41.987 7.903 41.998 7.889 Q 42.021 7.859 42.052 7.828 Q 42.084 7.797 42.13 7.761 Q 42.144 7.751 42.157 7.751 Q 42.169 7.751 42.184 7.761 Q 42.229 7.797 42.261 7.829 Q 42.294 7.861 42.318 7.896 L 42.324 7.896 Q 42.342 7.872 42.378 7.84 Q 42.415 7.809 42.481 7.784 Q 42.547 7.759 42.65 7.759 Q 42.751 7.759 42.842 7.8 Q 42.934 7.841 42.992 7.937 Q 43.051 8.034 43.051 8.202 Z" transform="matrix(7.719802, 0, 0, 9.207203, -266.946014, -63.431664)" style="fill: rgb(19, 226, 155);"/>
    <path d="M 43.73 8.913 Q 43.587 8.913 43.487 8.842 Q 43.386 8.772 43.334 8.648 Q 43.282 8.524 43.282 8.362 Q 43.282 8.148 43.358 8.015 Q 43.433 7.883 43.571 7.82 Q 43.709 7.758 43.897 7.758 Q 43.962 7.758 44.004 7.765 Q 44.047 7.771 44.065 7.776 L 44.065 7.376 Q 44.065 7.35 44.076 7.336 Q 44.121 7.277 44.208 7.208 Q 44.223 7.197 44.235 7.197 Q 44.249 7.197 44.262 7.208 Q 44.308 7.244 44.339 7.275 Q 44.371 7.306 44.394 7.336 Q 44.404 7.35 44.404 7.376 L 44.404 8.837 Q 44.404 8.857 44.39 8.871 Q 44.376 8.886 44.355 8.886 L 44.195 8.886 Q 44.178 8.886 44.164 8.881 Q 44.151 8.876 44.139 8.862 L 44.072 8.776 L 44.065 8.776 Q 44.051 8.798 44.015 8.831 Q 43.979 8.863 43.911 8.888 Q 43.843 8.913 43.73 8.913 Z M 43.834 8.638 Q 43.931 8.638 43.986 8.601 Q 44.041 8.565 44.065 8.509 L 44.065 8.059 Q 44.048 8.048 44.008 8.033 Q 43.968 8.018 43.896 8.018 Q 43.763 8.018 43.697 8.105 Q 43.63 8.192 43.63 8.339 Q 43.63 8.492 43.686 8.565 Q 43.742 8.638 43.834 8.638 Z" transform="matrix(7.719802, 0, 0, 9.207203, -266.946014, -63.431664)" style="fill: rgb(19, 226, 155);"/>
    <path d="M 45.099 8.829 Q 45.099 8.861 45.085 8.874 Q 45.072 8.886 45.04 8.886 L 44.819 8.886 Q 44.786 8.886 44.773 8.874 Q 44.759 8.861 44.759 8.829 L 44.759 8.036 L 44.633 8.036 Q 44.6 8.036 44.588 8.023 Q 44.576 8.009 44.576 7.977 L 44.576 7.845 Q 44.576 7.813 44.588 7.799 Q 44.6 7.786 44.633 7.786 L 44.759 7.786 L 44.759 7.65 Q 44.759 7.52 44.812 7.426 Q 44.864 7.333 44.952 7.282 Q 45.041 7.232 45.149 7.232 Q 45.2 7.232 45.226 7.236 Q 45.253 7.24 45.265 7.249 Q 45.307 7.273 45.381 7.346 Q 45.393 7.358 45.393 7.371 Q 45.393 7.385 45.375 7.404 Q 45.343 7.437 45.314 7.46 Q 45.285 7.483 45.266 7.495 Q 45.25 7.505 45.238 7.506 Q 45.226 7.508 45.204 7.508 Q 45.099 7.508 45.099 7.669 L 45.099 7.786 L 45.293 7.786 Q 45.326 7.786 45.338 7.799 Q 45.35 7.813 45.35 7.845 L 45.35 7.977 Q 45.35 8.009 45.338 8.023 Q 45.326 8.036 45.293 8.036 L 45.099 8.036 Z" transform="matrix(7.719802, 0, 0, 9.207203, -266.946014, -63.431664)" style="fill: rgb(19, 226, 155);"/>
    <path d="M 45.59 9.403 Q 45.55 9.403 45.529 9.395 Q 45.509 9.387 45.495 9.375 Q 45.467 9.348 45.435 9.3 Q 45.427 9.288 45.419 9.272 Q 45.41 9.257 45.41 9.246 Q 45.41 9.234 45.416 9.224 Q 45.421 9.215 45.428 9.206 Q 45.446 9.184 45.47 9.159 Q 45.495 9.135 45.512 9.121 Q 45.524 9.112 45.532 9.109 Q 45.539 9.106 45.544 9.106 Q 45.55 9.106 45.561 9.108 Q 45.571 9.111 45.593 9.111 Q 45.667 9.111 45.747 9.062 Q 45.828 9.014 45.906 8.881 Q 45.825 8.805 45.746 8.692 Q 45.667 8.579 45.604 8.446 Q 45.54 8.313 45.502 8.181 Q 45.464 8.049 45.464 7.937 Q 45.464 7.914 45.476 7.9 Q 45.525 7.839 45.616 7.772 Q 45.633 7.761 45.645 7.761 Q 45.659 7.761 45.674 7.772 Q 45.724 7.807 45.758 7.839 Q 45.792 7.87 45.815 7.9 Q 45.827 7.914 45.827 7.94 L 45.827 7.935 Q 45.827 8.02 45.847 8.115 Q 45.868 8.209 45.903 8.299 Q 45.939 8.389 45.983 8.461 Q 46.027 8.534 46.074 8.577 L 46.079 8.577 Q 46.101 8.536 46.127 8.459 Q 46.154 8.382 46.177 8.288 Q 46.201 8.194 46.216 8.101 Q 46.231 8.008 46.231 7.936 L 46.231 7.94 Q 46.231 7.914 46.242 7.9 Q 46.266 7.87 46.3 7.839 Q 46.333 7.807 46.38 7.772 Q 46.395 7.761 46.408 7.761 Q 46.423 7.761 46.436 7.772 Q 46.484 7.807 46.518 7.839 Q 46.551 7.87 46.575 7.9 Q 46.585 7.914 46.585 7.939 Q 46.584 8.036 46.548 8.194 Q 46.511 8.351 46.441 8.535 Q 46.372 8.718 46.272 8.895 Q 46.122 9.16 45.949 9.281 Q 45.776 9.403 45.59 9.403 Z M 46.585 7.936 L 46.585 7.94 L 46.585 7.939 Q 46.585 7.937 46.585 7.936 Z M 45.464 7.936 L 45.464 7.937 L 45.464 7.94 Z" transform="matrix(7.719802, 0, 0, 9.207203, -266.946014, -63.431664)" style="fill: rgb(19, 226, 155);"/>
  </g>
</svg>